HIERARCHY
ROOT Hips
{
	OFFSET 0.00000 0.00000 0.00000
	CHANNELS 6 Xposition Yposition Zposition Zrotation Yrotation Xrotation 
	JOINT LHipJoint
	{
		OFFSET 0 0 0
		CHANNELS 3 Zrotation Yrotation Xrotation
		JOINT LeftHip
		{
			OFFSET 1.65412 -1.54119 0.76744
			CHANNELS 3 Zrotation Yrotation Xrotation
			JOINT LeftKnee
			{
				OFFSET 2.19550 -6.03209 0.00000
				CHANNELS 3 Zrotation Yrotation Xrotation
				JOINT LeftAnkle
				{
					OFFSET 2.38814 -6.56138 0.00000
					CHANNELS 3 Zrotation Yrotation Xrotation
					JOINT LeftToe
					{
						OFFSET 0.17337 -0.47632 1.75875
						CHANNELS 3 Zrotation Yrotation Xrotation
						End Site
						{
							OFFSET 0.00000 -0.00000 0.92050
						}
					}
				}
			}
		}
	}
	JOINT RHipJoint
	{
		OFFSET 0 0 0
		CHANNELS 3 Zrotation Yrotation Xrotation
		JOINT RightHip
		{
			OFFSET -1.40291 -1.54119 0.76744
			CHANNELS 3 Zrotation Yrotation Xrotation
			JOINT RightKnee
			{
				OFFSET -2.22156 -6.10370 0.00000
				CHANNELS 3 Zrotation Yrotation Xrotation
				JOINT RightAnkle
				{
					OFFSET -2.46840 -6.78188 0.00000
					CHANNELS 3 Zrotation Yrotation Xrotation
					JOINT RightToe
					{
						OFFSET -0.15659 -0.43024 1.84117
						CHANNELS 3 Zrotation Yrotation Xrotation
						End Site
						{
							OFFSET -0.00000 -0.00000 0.95587
						}
					}
				}
			}
		}
	}
	JOINT lowerback
	{
		OFFSET 0 0 0
		CHANNELS 3 Zrotation Yrotation Xrotation
		JOINT Chest
		{
			OFFSET -0.01936 1.82120 -0.32061
			CHANNELS 3 Zrotation Yrotation Xrotation
			JOINT Chest2
			{
				OFFSET -0.00532 1.85767 -0.00071
				CHANNELS 3 Zrotation Yrotation Xrotation
				JOINT lowerneck
				{
					OFFSET 0 0 0
					CHANNELS 3 Zrotation Yrotation Xrotation
					JOINT Neck
					{
						OFFSET -0.10687 1.58194 0.10810
						CHANNELS 3 Zrotation Yrotation Xrotation
						JOINT Head
						{
							OFFSET 0.15346 1.57382 -0.25612
							CHANNELS 3 Zrotation Yrotation Xrotation
							End Site
							{
								OFFSET 0.05334 1.61251 -0.10513
							}
						}
					}
				}
				JOINT LeftCollar
				{
					OFFSET 0 0 0
					CHANNELS 3 Zrotation Yrotation Xrotation
					JOINT LeftShoulder
					{
						OFFSET 2.85758 0.89498 -0.01485
CHANNELS 3 Zrotation Xrotation Yrotation
						JOINT LeftElbow
						{
OFFSET 0 -4.791850 -0.000000
CHANNELS 3 Zrotation Xrotation Yrotation
							JOINT LeftWrist
							{
OFFSET 0 -2.655530 0.000000
CHANNELS 3 Zrotation Xrotation Yrotation
								JOINT lhand
								{
									OFFSET 0 0 0
CHANNELS 3 Zrotation Xrotation Yrotation
									JOINT LFingers
									{
OFFSET 0 -0.743900 0.000000
CHANNELS 3 Zrotation Xrotation Yrotation
										End Site
										{
OFFSET 0 -0.599750 0.000000
										}
									}
								}
								JOINT LThumb
								{
OFFSET 0 0.000000 0.000000
CHANNELS 3 Zrotation Xrotation Yrotation
									End Site
									{
OFFSET 0 -0.608910 0.608910
									}
								}
							}
						}
					}
				}
				JOINT RightCollar
				{
					OFFSET 0 0 0
					CHANNELS 3 Zrotation Yrotation Xrotation
					JOINT RightShoulder
					{
						OFFSET -2.93906 0.88031 0.02490
CHANNELS 3 Zrotation Xrotation Yrotation
						JOINT RightElbow
						{
OFFSET 0 -4.772540 -0.000000
CHANNELS 3 Zrotation Xrotation Yrotation
							JOINT RightWrist
							{
OFFSET 0 -2.759950 -0.000000
CHANNELS 3 Zrotation Xrotation Yrotation
								JOINT rhand
								{
									OFFSET 0 0 0
CHANNELS 3 Zrotation Xrotation Yrotation
									JOINT RFingers
									{
OFFSET 0 -0.701620 0.000000
CHANNELS 3 Zrotation Xrotation Yrotation
										End Site
										{
OFFSET 0 -0.565660 0.000000
										}
									}
								}
								JOINT RThumb
								{
OFFSET 0 0.000000 0.000000
CHANNELS 3 Zrotation Xrotation Yrotation
									End Site
									{
OFFSET 0 -0.574300 0.574300
									}
								}
							}
						}
					}
				}
			}
		}
	}
}
MOTION
Frames: 4
Frame Time: 0.008333333333333333
0.311300 16.130900 -0.011800 -1.494600 -0.444900 -0.234700 0.000000 0.000000 0.000000 -16.610600 -10.261800 8.136300 0.145700 2.459500 6.777300 0.029700 7.442200 -11.245600 0.379300 -3.955400 -10.951200 0.000000 0.000000 0.000000 19.045800 11.216800 5.860400 -0.439400 -4.253400 11.790600 -0.078000 -8.971900 -14.117600 -0.297700 3.508100 -9.696700 -2.096800 1.189600 11.326000 -0.694300 1.256200 -0.204000 0.240100 0.672100 -6.607700 -18.143500 -12.651500 1.530000 15.147700 -18.451900 10.166000 6.361600 -9.250200 5.925900 -0.000000 0.000000 0.000000 8.662300 6.635300 -42.991100 45.617500 -51.067400 22.718100 6.136700 -1.048200 -14.351000 0.000000 0.000000 0.000000 -7.125000 0.000000 0.000000 -19.372600 43.524000 -0.735000 -0.000000 0.000000 0.000000 2.423300 -0.395100 34.874900 -13.636200 -22.212200 -2.689000 -16.117300 6.316500 -10.243800 0.000000 0.000000 0.000000 7.125000 0.000000 -0.000000 7.733000 19.377000 4.772700
0.314015 16.130758 -0.019997 -1.483248 -0.513638 -0.276284 0.000000 0.000000 0.000000 -16.642063 -10.174052 8.181623 0.142496 2.433106 6.704207 0.024696 7.539933 -11.275858 0.405382 -4.087567 -11.323042 0.000000 0.000000 0.000000 19.004183 11.173364 5.808787 -0.441805 -4.264906 11.823173 -0.068989 -8.973011 -13.974048 -0.330955 3.697165 -10.226241 -2.041334 1.186317 11.276617 -0.743156 1.259652 -0.055434 0.160154 0.669306 -6.419866 -18.169169 -12.610589 0.860010 14.803160 -18.397445 11.596438 6.200762 -9.200236 6.445907 0.000000 0.000000 0.000000 8.701779 6.413651 -43.006987 46.075852 -51.284770 23.075165 6.375530 -1.188886 -14.448969 0.000000 0.000000 0.000000 -7.125000 0.000000 0.000000 -19.198226 43.642296 -0.669470 0.000000 0.000000 0.000000 2.496124 -0.579902 34.985259 -13.710061 -22.318666 -2.717050 -16.457853 5.954378 -10.202478 0.000000 0.000000 0.000000 7.125000 0.000000 0.000000 7.492129 19.398639 4.617761
0.315918 16.132800 -0.026105 -1.706803 -0.444666 -0.275964 0.000000 0.000000 0.000000 -16.409589 -10.330052 7.963564 0.161123 2.586406 7.129272 0.041013 7.402170 -11.422943 0.406828 -4.094839 -11.343664 0.000000 0.000000 0.000000 19.254341 11.141950 6.002614 -0.416803 -4.144134 11.482420 -0.054356 -9.088812 -13.887121 -0.289026 3.457035 -9.554037 -1.792728 1.113820 11.224299 -0.699864 1.201896 0.057962 0.078154 0.632669 -6.264604 -18.225956 -12.692508 0.285871 14.537630 -18.494285 12.650825 6.059616 -9.228737 6.874600 0.000000 0.000000 0.000000 8.689987 6.322928 -42.874956 46.300977 -51.390153 23.250994 6.434081 -1.250653 -14.377569 0.000000 0.000000 0.000000 -7.125000 0.000000 0.000000 -19.123019 43.580944 -0.696783 0.000000 0.000000 0.000000 2.536843 -0.483701 34.888774 -13.892358 -22.580547 -2.786618 -16.423324 6.023570 -10.420491 0.000000 0.000000 0.000000 7.125000 0.000000 0.000000 7.514419 19.176101 4.669313
0.318081 16.134642 -0.035526 -1.484127 -0.411052 -0.237488 0.000000 0.000000 0.000000 -16.638171 -10.280838 8.180620 0.136563 2.381877 6.562323 0.011690 7.619690 -11.114927 0.383041 -3.974493 -11.004901 0.000000 0.000000 0.000000 19.015471 11.292983 5.847070 -0.435641 -4.235492 11.740152 -0.062834 -9.115684 -14.060198 -0.290277 3.464561 -9.574948 -2.028343 1.096004 11.200709 -0.732677 1.147526 0.148096 0.186924 0.611606 -6.159245 -18.478651 -12.825868 0.062577 14.481324 -18.690028 13.235043 6.027250 -9.322955 7.154285 0.000000 0.000000 0.000000 8.648515 6.319818 -42.757213 46.438265 -51.453924 23.358274 6.279206 -1.105677 -14.397401 0.000000 0.000000 0.000000 -7.125000 0.000000 0.000000 -19.264523 43.583210 -0.701219 0.000000 0.000000 0.000000 2.339375 -0.482437 35.343587 -13.865958 -22.542840 -2.776570 -16.295369 5.615926 -10.467041 0.000000 0.000000 0.000000 7.125000 0.000000 0.000000 7.604558 19.136293 4.733149
